<svg width="71" height="88" viewBox="0 0 71 88" fill="none" xmlns="http://www.w3.org/2000/svg">
<rect x="28" y="22" width="38" height="50" rx="19" fill="url(#paint0_linear_7_21)"/>
<rect x="42" y="75" width="12" height="9" fill="#F8FF3B" fill-opacity="0.58"/>
<path fill-rule="evenodd" clip-rule="evenodd" d="M37.5625 5.42129L21.0625 11.1423L10.3105 24.9463C4.39651 32.5383 -0.238493 38.9533 0.00950652 39.2013C0.257507 39.4493 1.90651 39.1483 3.67351 38.5323C5.44051 37.9163 7.07851 37.6033 7.31251 37.8373C8.04751 38.5733 9.76251 45.7403 10.2785 50.2373C10.6815 53.7473 11.0815 54.4303 12.4185 53.8913C13.3225 53.5263 14.6375 53.1313 15.3395 53.0123C16.0425 52.8933 16.5845 52.4963 16.5445 52.1293C16.3735 50.5793 11.3545 40.4103 10.4975 39.8813C8.24051 38.4863 11.1615 35.4943 16.2655 33.9733C18.1185 33.4203 18.8225 34.0003 20.6995 37.6193C21.9265 39.9853 23.2475 44.4953 23.6335 47.6413C24.3365 53.3563 26.4145 57.5643 32.7625 66.1273C35.4765 69.7893 35.7015 70.5483 34.5035 71.9923C33.3095 73.4313 33.4205 73.8883 35.3445 75.4463C36.8775 76.6873 37.5625 78.3333 37.5625 80.7753C37.5625 85.4353 40.4015 87.4213 47.0625 87.4213C53.6425 87.4213 56.5625 85.4233 56.5625 80.9213C56.5625 78.5493 57.2325 77.0653 58.7975 75.9693C60.6675 74.6593 60.8405 74.0963 59.8565 72.5203C58.6215 70.5433 58.8495 70.0943 67.0515 58.3733C69.5505 54.8013 70.0965 52.9403 70.3865 47.0113C70.6925 40.7603 70.3925 39.2703 67.8545 34.4213C65.6185 30.1493 63.7675 28.1953 59.5635 25.6713C56.5865 23.8833 53.1535 22.4213 51.9335 22.4213C49.4445 22.4213 43.5625 17.9123 43.5625 16.0033C43.5625 15.3213 46.0885 11.5123 49.1755 7.53929C52.2635 3.56529 54.6255 0.176289 54.4255 0.00828879C54.2265 -0.160711 46.6375 2.27529 37.5625 5.42129ZM55.4635 28.8703C59.6775 31.0493 64.3795 36.9273 65.1365 40.9623C66.4595 48.0143 65.1335 52.8883 60.0635 59.6113C57.4465 63.0823 54.8695 67.1583 54.3365 68.6713C53.4195 71.2713 53.0285 71.4213 47.1655 71.4213C41.0505 71.4213 40.9475 71.3753 39.7645 68.1023C39.1035 66.2763 37.0545 63.0143 35.2105 60.8523C30.5185 55.3533 28.5545 51.1453 28.6125 46.7213C28.6605 43.0883 28.9175 42.8013 34.4695 40.1733C37.9935 38.5053 42.0025 35.4993 44.6695 32.5253C49.4205 27.2253 51.1505 26.6393 55.4635 28.8703ZM52.1925 78.6713C51.8615 79.9083 51.5835 81.2593 51.5765 81.6713C51.5685 82.0833 49.5375 82.4213 47.0625 82.4213C42.7295 82.4213 42.5625 82.3103 42.5625 79.4213C42.5625 76.4793 42.6605 76.4213 47.6795 76.4213C52.4975 76.4213 52.7605 76.5523 52.1925 78.6713Z" fill="#413F42"/>
<defs>
<linearGradient id="paint0_linear_7_21" x1="47" y1="39" x2="47" y2="98" gradientUnits="userSpaceOnUse">
<stop stop-color="#FFBD00"/>
<stop offset="1" stop-color="#F8FF3B" stop-opacity="0"/>
</linearGradient>
</defs>
</svg>
